<?xml version="1.0" standalone="no"?>
<!DOCTYPE svg PUBLIC "-//W3C//DTD SVG 20010904//EN"
 "http://www.w3.org/TR/2001/REC-SVG-20010904/DTD/svg10.dtd">
<svg version="1.0" xmlns="http://www.w3.org/2000/svg"
 width="1575.000000pt" height="1575.000000pt" viewBox="0 0 1575.000000 1575.000000"
 preserveAspectRatio="xMidYMid meet">

<g transform="translate(0.000000,1575.000000) scale(0.100000,-0.100000)"
fill="#000000" stroke="none">
<path d="M0 7875 l0 -7875 7875 0 7875 0 0 7875 0 7875 -7875 0 -7875 0 0
-7875z m4439 2048 c19 -22 22 -34 18 -70 -2 -24 -12 -52 -21 -62 -15 -17 -14
-20 19 -54 19 -20 35 -39 35 -42 0 -9 64 -99 89 -126 12 -13 30 -37 38 -54 9
-16 22 -38 31 -48 14 -16 13 -20 -13 -47 -24 -25 -28 -37 -28 -86 0 -50 4 -61
27 -80 14 -13 43 -26 64 -29 20 -3 56 -9 79 -14 33 -6 48 -4 65 7 36 25 56 51
63 82 7 30 -13 110 -27 110 -4 0 -8 20 -8 45 0 25 3 45 8 45 4 0 13 13 20 28
6 16 20 37 30 48 9 10 23 31 31 46 7 14 23 29 35 33 11 4 24 8 29 10 4 1 11 3
16 4 19 2 30 143 18 233 -5 41 -3 47 15 51 29 8 75 -3 90 -20 6 -8 12 -39 12
-68 1 -43 -4 -58 -23 -79 -22 -23 -23 -27 -9 -48 8 -13 20 -42 26 -65 7 -23
18 -48 25 -55 20 -20 67 -116 67 -136 0 -9 7 -27 15 -39 13 -18 12 -27 -5 -76
-23 -65 -23 -69 -10 -119 8 -29 18 -40 45 -49 19 -7 35 -17 35 -21 0 -4 9 -8
20 -8 11 0 20 5 20 10 0 6 16 10 35 10 42 0 61 25 69 90 11 94 19 131 29 127
10 -3 82 64 89 83 2 6 13 12 25 13 12 0 20 4 18 8 -6 8 52 59 59 52 6 -7 36
22 36 36 0 5 10 17 21 25 20 14 20 16 5 37 -33 48 -20 98 38 147 18 14 56 16
56 2 0 -5 6 -10 13 -10 21 0 67 -50 67 -73 0 -43 -12 -62 -50 -84 -31 -19 -39
-30 -45 -63 -4 -22 -13 -47 -21 -54 -14 -15 -28 -48 -75 -186 -16 -46 -34 -87
-39 -90 -12 -7 -41 -82 -71 -177 -18 -58 -39 -83 -39 -48 0 8 4 15 9 15 5 0
16 35 26 78 9 42 23 100 31 127 7 28 15 61 17 75 9 48 20 85 27 90 4 3 10 19
13 37 5 27 4 31 -11 26 -9 -4 -33 -20 -53 -37 -20 -17 -53 -43 -72 -59 -34
-26 -35 -30 -34 -90 3 -84 -6 -110 -50 -143 -32 -24 -47 -29 -93 -28 -107 2
-158 27 -191 92 -8 15 -18 30 -24 34 -13 10 -10 121 4 126 14 5 15 92 1 92 -5
0 -10 7 -10 14 0 8 -17 49 -37 91 -40 84 -73 116 -98 95 -8 -7 -15 -18 -15
-25 0 -7 -13 -27 -28 -43 -30 -32 -58 -71 -78 -108 -9 -17 -9 -25 3 -36 20
-21 46 -126 39 -163 -10 -49 -62 -122 -98 -134 -36 -13 -51 -14 -45 -3 3 4
-37 7 -88 7 l-93 1 -38 37 c-21 20 -41 37 -45 37 -4 0 -12 13 -19 29 -11 29
-10 90 6 188 5 38 2 48 -30 93 -20 27 -36 54 -36 58 0 9 -80 72 -91 72 -4 0
-11 -9 -14 -20 -3 -11 -12 -26 -19 -33 -7 -7 -28 -53 -46 -102 -33 -88 -33
-88 -16 -140 32 -103 13 -200 -45 -230 -35 -18 -70 -17 -77 4 -3 8 0 11 7 7 6
-4 11 0 11 10 0 9 10 25 23 36 18 17 22 29 20 76 -1 31 -3 94 -5 140 -2 69 0
86 14 96 9 7 20 24 23 39 4 15 11 30 16 33 5 3 9 13 9 24 0 10 16 32 35 49 33
29 35 34 35 96 0 36 -4 65 -8 65 -14 0 -31 124 -18 133 20 14 70 -2 95 -30z
m-789 -113 c0 -5 6 -10 14 -10 22 0 56 -49 56 -80 0 -15 -9 -38 -19 -52 l-20
-25 32 -28 c18 -15 57 -47 87 -70 30 -22 75 -60 100 -83 25 -23 52 -45 62 -47
9 -3 24 -17 32 -31 14 -20 15 -31 6 -65 -6 -22 -8 -50 -4 -62 9 -31 44 -67 66
-67 10 0 18 -4 18 -10 0 -5 10 -10 23 -10 12 0 29 -5 37 -10 13 -9 13 -11 0
-20 -46 -30 -132 4 -164 65 -12 22 -24 41 -28 43 -5 2 -8 19 -8 39 0 42 -27
103 -55 123 -34 25 -87 51 -92 46 -3 -3 -14 -1 -24 5 -11 6 -19 6 -19 0 0 -5
20 -89 45 -187 25 -99 44 -188 43 -198 -2 -11 -23 43 -47 120 -24 76 -49 142
-54 146 -6 3 -11 40 -12 81 -2 68 -6 81 -41 139 -21 34 -41 65 -44 68 -23 22
-46 134 -35 169 6 21 45 30 45 11z m4284 -270 c20 -7 26 -16 26 -40 0 -29 1
-30 50 -30 47 0 50 -2 50 -25 0 -25 0 -25 -95 -25 -86 0 -95 2 -95 19 0 10 9
21 20 24 11 3 20 12 20 20 0 8 -9 17 -20 20 -27 7 -27 47 -1 47 11 0 31 -4 45
-10z m1036 -140 l0 -29 -97 -3 c-94 -3 -98 -4 -101 -27 l-4 -23 31 18 c26 15
34 16 58 5 30 -14 39 -14 36 0 -2 5 13 9 32 9 27 0 35 -4 35 -17 -1 -23 -19
-46 -46 -61 -18 -10 -23 -8 -32 12 -8 18 -16 22 -41 18 -17 -2 -31 -8 -31 -13
0 -5 -11 1 -25 13 -20 17 -25 31 -25 68 0 26 3 50 7 53 3 4 51 7 105 7 l98 0
0 -30z m-976 -24 c19 -17 26 -34 26 -59 0 -31 -5 -39 -31 -53 -32 -16 -85 -12
-74 7 4 5 3 9 -2 8 -23 -4 -33 3 -33 26 0 19 6 25 23 26 l22 2 -22 4 c-30 6
-29 16 2 33 14 7 25 17 25 22 0 17 40 7 64 -16z m-924 -41 c0 -23 -4 -25 -44
-25 l-44 0 -1 -184 c0 -102 2 -192 5 -200 3 -9 17 -16 30 -16 21 0 24 -5 24
-35 0 -30 -3 -35 -23 -35 -22 0 -78 52 -86 81 -3 8 -6 84 -8 169 -4 160 -16
238 -40 247 -36 14 -3 23 87 23 l100 0 0 -25z m245 -167 l27 -25 -22 -16 c-20
-14 -27 -14 -63 -1 -66 23 -117 2 -101 -41 6 -14 40 -27 112 -41 73 -15 104
-88 65 -155 -22 -38 -60 -52 -123 -46 -39 4 -58 12 -82 36 -23 22 -34 27 -39
19 -5 -7 -10 -10 -13 -8 -2 3 3 16 13 29 l18 24 31 -23 c48 -35 151 -20 152
22 0 15 -52 58 -70 58 -10 0 -22 5 -25 10 -3 6 -13 10 -21 10 -34 0 -66 59
-58 105 3 15 12 38 21 52 16 24 21 25 84 21 54 -4 72 -10 94 -30z m300 -114
l0 -142 -35 -36 c-28 -28 -43 -36 -73 -36 -37 0 -72 14 -92 37 -5 6 -19 13
-30 15 -34 6 -29 33 9 45 31 10 35 8 45 -13 15 -34 74 -34 96 0 20 30 19 173
-1 212 -8 14 -14 35 -14 46 0 17 6 19 48 16 l47 -3 0 -141z m155 21 c0 -115 2
-126 22 -145 24 -22 27 -23 77 -24 27 -1 35 -5 37 -24 5 -28 -34 -45 -86 -38
-19 3 -38 5 -42 6 -5 0 -8 5 -8 10 0 6 -11 23 -24 37 -27 29 -34 64 -36 206
l-1 97 30 0 31 0 0 -125z m220 -55 l0 -180 -28 0 c-22 0 -29 6 -37 33 -6 18
-7 50 -3 72 4 22 7 85 7 140 0 55 0 103 0 108 1 4 15 7 31 7 l30 0 0 -180z
m217 174 c17 -3 38 -19 51 -38 20 -30 22 -44 22 -175 0 -130 -2 -142 -17 -139
-10 2 -19 12 -21 23 -2 11 -6 27 -9 35 -2 8 -6 57 -8 108 -3 82 -6 96 -26 113
-18 16 -32 18 -68 14 -36 -5 -43 -4 -31 5 11 9 12 13 3 17 -7 2 -13 11 -13 18
0 23 54 32 117 19z m243 -139 c0 -137 1 -145 19 -145 25 0 30 -9 24 -43 -7
-36 -37 -36 -60 1 -10 15 -23 33 -30 40 -9 9 -13 44 -13 100 0 48 -3 111 -6
140 l-7 52 37 0 36 0 0 -145z m158 -2 l3 -143 29 0 c28 0 30 -3 30 -36 0 -34
-1 -35 -32 -32 -28 3 -36 10 -54 48 -18 37 -23 71 -27 178 l-6 133 27 -3 27
-3 3 -142z m208 132 c4 -8 12 -15 19 -15 15 0 25 -22 25 -57 0 -16 -14 -37
-40 -60 -36 -32 -40 -41 -40 -83 0 -57 12 -70 66 -70 68 0 73 27 48 243 l-7
58 39 -3 39 -3 0 -142 0 -141 -30 -30 c-28 -28 -34 -30 -80 -25 -70 8 -115 53
-115 116 0 28 7 53 19 68 29 38 34 65 17 98 -9 17 -16 37 -16 46 0 20 49 20
56 0z m434 -128 c0 -128 -2 -144 -19 -156 -10 -8 -22 -13 -26 -12 -8 1 -13
300 -6 307 2 2 15 4 28 4 l23 0 0 -143z m-1180 83 c0 -5 -7 -10 -16 -10 -8 0
-12 5 -9 10 3 6 10 10 16 10 5 0 9 -4 9 -10z m-4206 -126 c9 -24 7 -27 -9 -10
-17 17 -19 26 -6 26 5 0 12 -7 15 -16z m1115 -11 c53 -9 98 -20 101 -23 5 -6
112 -27 282 -55 124 -21 169 -40 198 -83 l25 -37 -2 -412 -3 -413 28 -6 c15
-4 42 -22 61 -40 19 -19 38 -34 41 -34 4 0 27 -26 51 -57 23 -32 51 -67 60
-78 10 -11 38 -42 63 -70 47 -53 136 -162 136 -168 0 -2 20 -25 45 -51 25 -27
45 -54 45 -61 0 -6 13 -21 30 -33 16 -12 41 -42 56 -67 14 -25 30 -45 35 -45
17 0 40 -62 46 -125 5 -52 2 -75 -17 -124 -12 -33 -28 -62 -35 -65 -9 -3 -12
0 -8 10 3 7 8 14 12 14 4 0 13 22 19 48 11 51 2 124 -17 130 -6 2 -11 16 -11
31 0 43 -47 125 -101 177 -27 27 -49 54 -49 61 0 7 -13 22 -29 34 -16 12 -44
44 -61 71 -18 27 -43 56 -56 65 -13 8 -24 21 -24 28 0 6 -22 36 -49 66 -77 86
-111 126 -111 134 0 8 -26 35 -34 35 -3 0 -22 16 -42 35 -19 19 -40 35 -44 35
-5 0 -21 11 -36 25 l-27 25 -1 399 -1 400 -52 50 -52 50 -173 35 c-95 19 -213
40 -263 46 -49 7 -93 18 -97 24 -9 14 -301 11 -306 -4 -2 -5 -27 -10 -57 -10
-68 0 -320 -28 -410 -45 -90 -17 -125 -31 -125 -49 0 -15 37 -23 250 -52 69
-9 132 -21 140 -25 13 -7 13 -8 0 -9 -25 0 -374 40 -392 46 -25 7 -30 33 -12
64 20 33 59 43 250 61 71 7 131 15 134 19 7 10 294 37 404 39 50 0 133 -7 185
-16z m4115 -101 l21 -11 -22 0 c-12 -1 -26 5 -30 13 -11 19 -35 25 -55 14 -11
-5 -18 -5 -18 0 0 5 15 13 33 19 26 8 33 7 41 -8 4 -9 18 -22 30 -27z m-4109
-8 c66 -10 122 -21 125 -24 5 -8 112 -26 260 -45 52 -7 93 -14 90 -15 -3 -1
-48 -8 -100 -15 -73 -10 -84 -13 -47 -14 26 0 47 -5 47 -11 0 -5 20 -10 45
-10 36 0 47 -4 56 -22 9 -17 11 -113 6 -380 l-6 -357 22 -4 c18 -3 17 -5 -6
-6 -28 -1 -72 21 -94 47 -7 8 -30 17 -53 19 -33 3 -40 1 -41 -14 0 -12 -2 -14
-6 -4 -5 11 -7 11 -14 0 -8 -12 -11 -11 -19 1 -5 8 -10 10 -10 4 0 -7 -11 -15
-25 -18 -14 -4 -25 -11 -25 -16 0 -14 17 -12 23 3 3 6 4 -1 2 -18 -1 -16 -7
-31 -13 -33 -8 -2 -8 -7 -2 -15 39 -46 73 -95 81 -114 5 -13 13 -23 18 -23 5
0 19 -16 30 -36 l22 -36 -27 6 c-15 4 -50 23 -78 43 -53 36 -50 31 -92 171 -2
6 -10 12 -19 12 -8 0 -15 4 -15 9 0 5 -9 7 -20 4 -15 -4 -20 0 -20 15 0 16 6
20 30 20 20 -1 39 8 56 25 15 15 30 27 34 27 9 0 46 58 71 113 10 20 22 37 28
37 14 0 41 94 76 265 16 77 17 196 2 211 -13 13 -121 23 -213 19 -150 -6 -229
-39 -238 -100 -1 -7 -8 -21 -16 -31 -12 -14 -16 -72 -18 -314 -2 -258 -1 -299
13 -310 8 -7 15 -23 15 -36 0 -20 5 -24 31 -24 40 0 34 -20 -14 -43 -20 -9
-37 -22 -37 -27 0 -6 -5 -10 -11 -10 -5 0 -24 -13 -42 -30 -49 -46 -59 -38
-32 26 10 24 12 42 5 53 -16 30 -21 109 -24 395 -2 202 -6 281 -14 284 -7 2
-12 13 -12 23 0 11 -5 30 -11 42 -13 25 -66 77 -79 77 -18 0 -40 32 -40 58 0
15 -9 35 -20 45 -21 18 -27 47 -10 47 6 0 10 8 10 18 0 25 35 41 95 44 28 2
73 4 100 6 28 2 104 -5 170 -14z m-1061 -156 c-10 -47 -13 -173 -14 -495 0
-385 2 -437 17 -475 9 -24 26 -51 38 -61 20 -18 20 -18 -4 -4 -13 9 -32 30
-43 48 -19 30 -20 57 -24 478 -4 464 2 571 35 571 5 0 2 -28 -5 -62z m466 5
c30 -3 71 -7 90 -8 61 -3 70 -5 70 -14 0 -6 -77 -10 -192 -9 -165 1 -198 -1
-230 -16 -20 -10 -42 -15 -47 -11 -24 14 -6 54 29 67 16 7 192 1 280 -9z
m-328 -348 c-1 -129 -7 -235 -11 -235 -5 0 -9 -47 -10 -105 -1 -60 2 -105 7
-105 6 0 12 -17 14 -39 2 -28 0 -37 -9 -34 -21 8 -23 31 -28 368 -4 317 1 385
30 385 7 0 9 -76 7 -235z m3464 83 c32 -6 61 -14 64 -18 3 -3 39 -19 80 -34
41 -15 90 -33 108 -40 19 -7 47 -25 64 -39 16 -15 36 -27 44 -27 21 0 17 -18
-6 -25 -11 -3 -31 -21 -45 -40 -22 -28 -95 -85 -109 -85 -3 0 -6 10 -8 22 -2
14 -15 29 -33 37 -16 8 -35 20 -42 27 -24 24 -147 54 -228 56 -128 3 -167 0
-159 -14 5 -8 2 -9 -9 -5 -10 4 -17 2 -17 -4 0 -6 -7 -9 -14 -6 -10 4 -13 1
-9 -9 4 -12 0 -14 -21 -8 -20 5 -26 2 -26 -10 0 -9 6 -16 13 -16 6 -1 -2 -7
-19 -14 -71 -31 -85 -105 -31 -160 38 -38 93 -51 247 -61 52 -3 129 -11 170
-16 77 -11 184 -42 175 -51 -3 -3 14 -13 37 -23 46 -20 98 -62 98 -79 0 -6 14
-26 30 -45 40 -45 45 -66 45 -191 0 -99 -15 -170 -35 -170 -4 0 -10 -10 -14
-22 -3 -13 -27 -45 -53 -73 -37 -39 -48 -46 -51 -32 -2 9 -8 17 -14 17 -5 0
-8 -7 -4 -15 4 -11 -1 -15 -19 -15 -14 0 -25 -4 -25 -10 0 -5 -7 -7 -15 -4 -8
4 -37 -1 -63 -9 -26 -9 -59 -14 -75 -13 -15 2 -27 0 -27 -4 0 -4 -49 -7 -110
-7 -74 0 -110 4 -110 11 0 6 -5 4 -10 -4 -8 -13 -11 -13 -19 -1 -5 7 -13 11
-19 7 -16 -10 -126 23 -143 43 -8 10 -26 22 -40 26 -13 4 -41 25 -62 46 -28
29 -39 49 -42 81 -2 22 -10 45 -17 49 -8 6 -9 9 -2 9 18 0 24 39 8 54 -11 11
-11 16 -1 19 9 4 8 8 -3 16 -10 7 -11 11 -2 11 6 0 12 9 12 19 0 11 -6 22 -12
24 -10 4 -9 8 2 16 10 7 11 11 3 11 -7 0 -13 7 -13 15 0 8 5 15 10 15 6 0 10
8 10 18 0 10 8 18 18 19 9 0 45 4 80 8 l62 8 0 -142 c0 -114 3 -147 16 -166 9
-14 23 -25 30 -25 8 0 14 -4 14 -8 0 -9 48 -32 105 -51 17 -5 24 -10 18 -10
-9 -1 -7 -7 5 -19 11 -11 20 -14 24 -8 4 6 11 0 17 -14 6 -16 10 -19 10 -8 2
31 60 30 62 -1 1 -15 2 -15 6 0 2 10 19 19 41 23 93 16 109 20 136 40 93 66
126 127 126 230 1 107 -77 196 -186 211 -27 4 -51 11 -54 16 -3 4 -41 10 -85
13 -199 11 -366 54 -417 108 -15 15 -31 28 -37 28 -19 0 -46 94 -46 160 0 83
20 142 56 169 16 12 29 27 29 33 0 13 48 58 62 58 4 0 8 8 8 18 0 13 2 14 9 3
7 -11 11 -9 20 8 7 11 18 21 26 21 7 0 15 5 17 11 2 6 22 15 43 19 63 12 276
11 341 -2z m954 -428 c0 -278 4 -447 11 -481 9 -43 21 -62 65 -106 30 -29 58
-53 63 -53 5 0 22 -15 37 -32 15 -18 31 -32 36 -31 4 2 8 -2 8 -7 0 -6 7 -10
15 -10 9 0 18 -7 21 -15 4 -8 12 -15 20 -15 8 0 14 -4 14 -9 0 -5 -14 -9 -31
-9 -17 1 -35 -5 -40 -13 -6 -10 -9 -10 -9 -1 0 6 -11 12 -25 12 -16 0 -25 -6
-25 -16 0 -13 -3 -14 -15 -4 -8 7 -24 10 -35 7 -11 -3 -18 -1 -14 4 3 5 0 9
-5 9 -6 0 -11 -6 -11 -12 -1 -9 -5 -8 -13 2 -7 9 -20 14 -29 12 -10 -2 -18 2
-18 8 0 6 -4 8 -10 5 -5 -3 -10 1 -10 9 0 9 -7 16 -16 16 -8 0 -12 5 -9 10 4
6 3 10 -2 9 -20 -3 -34 3 -53 24 -22 22 -80 137 -80 157 0 5 -4 10 -9 10 -16
0 -20 71 -26 479 -5 287 -10 405 -20 433 l-13 38 114 0 114 0 0 -430z m800
-217 c-1 -541 -3 -645 -14 -630 -7 9 -17 17 -22 17 -5 0 -21 10 -36 23 l-27
22 -5 242 c-3 133 -6 318 -7 411 -1 162 -2 169 -20 165 -23 -6 -25 -20 -4 -26
11 -4 10 -4 -2 -3 -10 1 -19 11 -21 24 -3 17 2 22 20 23 22 0 22 1 3 9 -14 6
-16 9 -5 10 8 2 18 2 22 1 4 0 7 35 6 79 -2 74 -3 80 -22 79 -17 -1 -18 -2 -3
-6 21 -5 23 -33 2 -33 -8 0 -15 -4 -15 -10 0 -5 6 -10 13 -10 8 0 9 -3 1 -8
-6 -4 -14 -14 -17 -22 -6 -17 -9 8 -12 138 -3 100 -4 98 60 93 13 -1 27 9 38
29 12 20 26 30 43 30 l24 0 0 -647z m379 637 c24 0 31 -100 36 -541 5 -455 11
-665 21 -681 3 -4 20 -8 37 -8 22 0 40 -9 60 -29 15 -16 27 -32 27 -35 0 -3
-49 -6 -110 -6 l-110 0 0 656 c0 594 1 656 16 650 9 -3 19 -6 23 -6z m231
-402 c0 -422 4 -469 41 -538 16 -29 198 -210 211 -210 4 0 8 -7 8 -16 0 -14
-8 -16 -47 -10 -26 3 -49 10 -52 14 -4 5 -37 26 -76 47 -89 48 -131 90 -155
154 -35 98 -39 146 -39 559 -1 302 -2 312 -20 312 -11 0 -23 5 -26 10 -3 6 5
10 19 10 17 0 36 13 58 40 20 24 42 40 56 40 l22 0 0 -412z m788 -80 l-4 -493
-27 -65 c-15 -36 -37 -74 -47 -85 -11 -11 -30 -33 -42 -48 -16 -22 -23 -26
-29 -15 -6 8 -9 9 -9 1 0 -12 -38 -11 -58 1 -7 4 -12 2 -12 -4 0 -6 -6 -10
-12 -9 -7 1 -22 -2 -32 -6 -13 -6 -21 -4 -24 3 -2 7 -8 9 -14 6 -7 -4 -8 5 -4
27 4 25 4 29 -3 14 -9 -19 -10 -19 -10 3 -1 13 5 22 14 22 8 0 15 9 15 20 0
11 5 20 11 20 6 0 16 6 22 13 18 19 49 77 41 77 -3 0 0 7 7 16 14 17 15 20 17
67 1 16 6 25 12 22 12 -7 11 -15 10 330 -1 175 -4 261 -12 264 -6 2 -5 7 3 12
12 8 11 11 -1 19 -10 6 -11 10 -2 10 7 0 12 13 12 30 0 17 -5 30 -12 31 -10 0
-10 2 0 6 6 2 12 11 12 19 0 8 -6 14 -12 14 -9 0 -8 4 2 11 11 8 12 12 3 16
-7 2 -13 13 -13 24 0 10 6 19 13 19 8 0 9 3 1 8 -6 4 -14 26 -18 50 l-6 42
106 0 106 0 -4 -492z m609 56 c1 -443 7 -517 40 -537 7 -4 13 -14 13 -21 0 -8
11 -21 24 -29 13 -9 29 -22 37 -29 40 -40 131 -55 203 -34 68 20 148 91 183
163 23 48 23 48 23 486 l0 437 140 0 140 0 0 -655 0 -655 -135 0 -135 0 0 66
0 66 -40 -36 c-22 -20 -44 -36 -50 -36 -5 0 -17 -9 -27 -19 -25 -26 -104 -51
-166 -52 -61 -1 -77 2 -95 19 -7 6 -19 12 -25 12 -7 0 -6 -4 3 -10 9 -6 10
-10 3 -10 -6 0 -18 7 -27 15 -8 8 -19 15 -25 15 -6 0 -11 6 -11 13 0 8 -4 7
-10 -3 -8 -13 -10 -12 -10 3 0 9 -7 17 -15 17 -8 0 -15 5 -15 10 0 6 -8 10
-18 10 -24 0 -121 94 -147 143 -11 20 -26 37 -35 37 -13 0 -13 1 0 10 10 7 12
12 4 18 -17 12 -33 117 -38 252 -3 69 -7 135 -10 148 -3 12 0 22 6 22 7 0 7 4
-1 13 -6 8 -9 16 -7 18 2 2 6 19 10 38 4 24 3 32 -7 28 -17 -7 -32 13 -34 48
-2 22 0 26 7 15 5 -8 10 -24 11 -35 0 -15 3 -12 9 8 11 35 3 58 -16 50 -9 -3
-14 2 -14 16 0 12 6 21 13 22 9 0 9 2 0 5 -9 4 -12 57 -13 190 l0 184 128 0
128 0 1 -436z m-2220 204 c-3 -8 -6 -5 -6 6 -1 11 2 17 5 13 3 -3 4 -12 1 -19z
m-40 -10 c-3 -8 -6 -5 -6 6 -1 11 2 17 5 13 3 -3 4 -12 1 -19z m26 -35 c-7 -2
-19 -2 -25 0 -7 3 -2 5 12 5 14 0 19 -2 13 -5z m-3 -48 c0 -8 -7 -15 -15 -15
-16 0 -20 12 -8 23 11 12 23 8 23 -8z m110 1 c0 -7 -9 -16 -20 -19 -17 -4 -18
-2 -9 14 11 22 29 25 29 5z m-4418 -58 c-7 -7 -12 -8 -12 -2 0 14 12 26 19 19
2 -3 -1 -11 -7 -17z m4285 -30 c-3 -7 -5 -2 -5 12 0 14 2 19 5 13 2 -7 2 -19
0 -25z m-4277 3 c0 -3 3 -17 7 -30 4 -15 2 -22 -4 -18 -6 4 -10 -5 -9 -22 1
-16 4 -27 9 -24 4 2 7 -3 7 -11 0 -9 -5 -16 -11 -16 -7 0 -8 -7 -4 -17 11 -27
15 -83 9 -123 -4 -28 -10 -36 -27 -38 -22 -1 -22 0 -19 111 3 70 8 115 15 119
9 6 9 8 0 8 -8 0 -13 15 -13 39 0 34 3 38 20 34 11 -3 20 -8 20 -12z m-148
-143 c4 -115 8 -141 23 -158 16 -17 16 -20 2 -26 -20 -7 -81 12 -98 32 -9 11
-9 21 -1 37 23 49 32 93 32 164 0 69 14 112 31 95 4 -4 9 -69 11 -144z m4461
95 c4 -3 -1 -12 -11 -20 -16 -12 -16 -13 2 -6 15 5 18 3 13 -10 -3 -9 -3 -17
1 -17 14 0 14 -153 0 -161 -10 -7 -10 -9 0 -9 8 0 12 -22 12 -75 0 -46 -4 -75
-11 -75 -5 0 -7 -5 -4 -10 8 -13 -14 -80 -32 -98 -7 -7 -13 -19 -13 -27 0 -14
-69 -85 -83 -85 -5 0 -15 -7 -24 -15 -8 -9 -20 -14 -26 -12 -23 7 -16 25 21
51 21 15 44 37 49 49 32 67 45 102 50 135 2 20 7 44 10 52 4 8 5 19 4 23 -4
22 1 300 6 310 5 9 27 9 36 0z m-4037 -29 c-18 -17 -26 -18 -26 -1 0 7 9 13
20 14 18 2 18 0 6 -13z m-491 -4 c3 -5 1 -10 -4 -10 -6 0 -11 5 -11 10 0 6 2
10 4 10 3 0 8 -4 11 -10z m-204 -110 c11 -6 19 -21 19 -35 0 -14 6 -25 13 -25
9 0 9 -2 -1 -8 -14 -10 -31 -9 -82 3 -39 8 -50 20 -50 52 0 16 7 22 28 25 22
2 28 9 30 33 5 54 16 61 20 13 2 -35 8 -51 23 -58z m-114 58 c-3 -7 -5 -2 -5
12 0 14 2 19 5 13 2 -7 2 -19 0 -25z m-51 -84 c-9 -6 -16 -17 -17 -25 0 -8 -4
-4 -9 8 -9 22 7 83 22 83 4 0 9 8 10 18 1 9 3 -3 5 -28 3 -32 0 -47 -11 -56z
m6882 71 c0 -14 -3 -25 -7 -25 -4 0 -8 11 -9 25 -1 14 2 25 7 25 5 0 9 -11 9
-25z m-7029 -50 c0 -5 -4 -3 -9 5 -5 8 -9 22 -9 30 0 16 17 -16 18 -35z m1433
6 c4 -1 8 -25 10 -53 l3 -53 13 40 c18 58 26 68 51 60 14 -4 21 -15 21 -31 0
-24 -25 -84 -40 -94 -4 -3 -11 -16 -15 -30 l-7 -25 20 23 20 22 4 -25 c3 -14
1 -25 -3 -25 -18 0 -8 -28 12 -33 17 -5 18 -3 7 10 -11 14 -10 15 12 9 19 -6
21 -5 10 3 -13 9 -8 15 11 13 9 -1 9 72 0 87 -6 9 -5 23 1 37 9 20 12 21 27 8
51 -46 91 -91 91 -101 0 -7 4 -13 9 -13 4 0 30 -28 57 -62 27 -35 53 -67 59
-73 7 -5 27 -30 45 -55 19 -25 43 -55 55 -66 11 -12 35 -42 52 -66 18 -24 44
-58 58 -74 15 -16 35 -41 46 -56 l20 -28 -38 0 c-29 0 -45 7 -66 28 -54 55
-74 72 -84 72 -6 0 -17 7 -24 16 -7 9 -23 20 -36 25 -13 5 -23 16 -23 25 0 10
-6 14 -14 11 -8 -3 -16 2 -19 15 -3 11 -10 17 -16 13 -6 -3 -11 0 -11 8 0 7
-7 14 -15 15 -8 1 -22 3 -31 4 -9 1 -27 11 -41 24 -25 23 -74 26 -81 5 -2 -6
-8 -11 -13 -11 -6 0 -7 5 -4 10 3 6 -2 10 -12 10 -11 0 -14 3 -7 8 6 4 13 16
16 28 4 18 1 20 -25 16 -21 -3 -28 -1 -23 7 5 7 -1 11 -16 12 -13 0 -17 3 -10
6 21 8 13 23 -14 23 -14 0 -22 4 -19 10 6 9 -40 60 -55 60 -3 0 -6 32 -6 72 1
49 -3 73 -11 75 -15 5 -18 43 -3 43 6 0 10 6 10 14 0 8 8 13 18 11 9 -2 20 -4
24 -4z m-1391 -42 c11 -11 37 -23 57 -26 20 -3 55 -11 77 -18 23 -7 69 -16
103 -20 124 -12 232 -34 247 -48 20 -20 59 -28 121 -23 43 3 51 1 50 -12 -2
-9 -8 -18 -13 -19 -6 -2 -78 6 -159 18 -82 11 -171 23 -199 26 -27 3 -52 9
-55 14 -3 4 -42 11 -87 15 -100 8 -161 36 -180 82 -11 28 -11 32 2 32 8 0 24
-9 36 -21z m1080 -1 c-10 -28 -61 -39 -61 -14 0 9 9 16 20 16 11 0 20 5 20 10
0 6 7 10 15 10 11 0 12 -6 6 -22z m-1277 -43 c4 -11 -2 -15 -26 -15 -26 0 -29
2 -18 15 7 8 18 15 25 15 7 0 15 -7 19 -15z m1319 -17 c12 -6 29 -15 37 -20 8
-5 23 -11 33 -14 15 -6 21 -16 19 -34 0 -3 8 -7 19 -7 12 -1 43 -26 71 -55 28
-29 47 -46 43 -38 -4 8 2 4 13 -9 11 -14 17 -31 14 -40 -3 -8 -1 -12 5 -8 13
8 47 -28 39 -41 -3 -6 6 -13 22 -17 l27 -8 -25 -7 c-25 -8 -25 -8 4 -9 16 -1
26 -4 23 -8 -4 -3 2 -12 13 -20 11 -8 20 -20 20 -26 0 -7 6 -24 14 -39 8 -15
13 -35 11 -45 -2 -10 -4 -26 -4 -35 -1 -11 -9 -18 -20 -18 -14 0 -17 6 -14 23
5 27 -21 97 -36 97 -6 0 -11 5 -11 11 0 6 -17 32 -38 58 -21 25 -42 54 -45 64
-4 9 -13 17 -22 17 -8 0 -15 4 -15 9 0 17 -179 189 -204 195 -14 3 -26 13 -26
21 0 18 4 18 33 3z m-1507 -17 c-3 -4 -32 -11 -65 -15 -56 -6 -87 -28 -58 -40
7 -2 2 -5 -10 -5 -13 -1 -23 1 -23 4 0 12 37 44 60 54 31 12 103 14 96 2z
m-176 -16 c0 -22 -32 -72 -53 -84 -33 -17 -54 -91 -54 -191 -1 -74 -1 -74 8
-25 5 28 11 71 14 97 3 25 12 48 19 51 9 4 11 -4 8 -24 -2 -16 -8 -29 -13 -29
-5 0 -9 -191 -9 -440 0 -287 3 -440 10 -440 6 0 10 -6 10 -13 0 -8 7 -28 16
-45 8 -18 13 -36 10 -41 -3 -5 2 -15 11 -22 14 -12 16 -12 9 0 -5 8 -5 12 0 9
5 -2 24 -10 41 -17 18 -7 31 -16 28 -20 -2 -5 41 -11 97 -15 56 -3 105 -10
108 -15 4 -7 192 -34 424 -61 125 -15 138 1 138 161 0 159 16 195 19 44 1 -66
4 -129 5 -140 1 -11 2 -26 3 -34 1 -7 7 -11 14 -8 7 3 24 -1 38 -9 13 -7 41
-13 62 -14 23 0 36 -4 32 -10 -8 -13 8 -13 22 1 5 5 50 16 99 24 157 25 211
39 222 55 7 12 7 17 -2 17 -18 0 -79 47 -67 51 6 2 25 -6 43 -18 l33 -22 -29
25 c-25 22 -80 48 -61 29 7 -7 -114 -37 -220 -54 -117 -19 -150 2 -162 101 -3
28 -10 51 -14 51 -5 0 -9 18 -9 40 0 39 1 40 34 40 18 0 39 -7 46 -15 7 -8 9
-15 6 -15 -4 0 -1 -9 7 -21 8 -11 13 -28 11 -37 -2 -9 0 -24 6 -32 9 -13 11
-13 20 0 8 13 10 12 10 -2 0 -18 14 -22 55 -19 68 4 105 4 140 -2 27 -4 34 -4
20 3 -11 5 -30 9 -41 9 -23 1 -84 57 -84 77 0 6 -7 14 -15 18 -8 3 -28 26 -44
51 -16 25 -40 57 -55 71 -14 14 -39 50 -56 80 -17 30 -38 58 -46 61 -9 3 -20
17 -26 32 -16 42 -28 200 -21 280 5 67 10 78 38 107 54 53 86 100 80 116 -4
11 -28 18 -75 22 -38 4 -73 12 -76 18 -5 8 15 9 67 4 107 -10 145 -7 231 14
85 22 118 25 118 10 0 -5 -13 -16 -30 -25 -16 -8 -34 -23 -39 -32 -6 -10 -11
-12 -11 -5 0 13 -30 17 -30 3 0 -5 -20 -12 -45 -15 -25 -4 -50 -15 -57 -25 -7
-10 -23 -23 -35 -30 -31 -16 -56 -66 -45 -89 6 -10 6 -44 1 -82 -12 -93 -2
-177 27 -222 13 -21 28 -38 32 -38 4 0 16 -18 26 -40 10 -22 27 -47 38 -56 10
-10 18 -23 18 -30 0 -7 9 -18 20 -24 11 -6 29 -28 39 -49 11 -21 37 -57 58
-80 21 -24 58 -66 83 -94 100 -112 233 -233 272 -246 42 -15 83 9 125 74 18
28 45 62 59 78 25 25 29 26 45 11 22 -20 59 -23 136 -13 32 5 90 11 128 14 39
4 77 8 86 11 10 3 18 -3 21 -14 5 -17 -8 -22 -116 -46 -66 -14 -129 -26 -138
-26 -10 0 -18 -4 -18 -9 0 -4 -40 -14 -88 -21 -79 -11 -89 -15 -101 -39 -24
-49 -24 -51 -2 -51 12 0 21 5 21 10 0 6 11 10 25 10 26 0 33 -18 14 -37 -9 -9
-6 -10 10 -6 23 6 39 23 22 23 -6 0 -11 5 -11 10 0 6 7 10 15 10 8 0 15 -5 15
-11 0 -8 5 -7 15 1 9 7 19 10 22 6 4 -4 1 -11 -7 -16 -8 -5 3 -6 31 -3 24 3
46 9 49 13 3 4 32 10 65 13 33 3 52 3 43 1 -10 -3 -18 -9 -18 -14 0 -5 -17
-12 -37 -15 -21 -4 -81 -15 -133 -26 -110 -22 -217 -25 -263 -5 -18 7 -46 26
-63 41 -16 15 -43 38 -59 51 l-30 23 -200 -31 c-110 -17 -202 -34 -205 -38 -3
-4 -43 -12 -89 -18 -63 -9 -106 -9 -177 0 -52 6 -94 15 -94 20 0 4 -10 8 -22
8 -47 0 -573 84 -576 92 -2 4 -9 8 -16 8 -7 0 -31 14 -53 32 -75 57 -74 50
-71 609 2 388 6 499 16 517 25 44 102 117 102 97z m198 -61 c58 -7 67 -19 22
-29 -38 -8 -85 2 -124 27 l-31 20 40 -6 c22 -3 64 -8 93 -12z m336 -29 c32
-29 34 -48 4 -43 -13 2 -27 15 -35 36 -16 38 -6 41 31 7z m-74 -20 c0 -8 -5
-15 -11 -15 -6 0 -17 7 -25 15 -14 13 -13 15 10 15 16 0 26 -6 26 -15z m753 0
c-3 -9 -8 -14 -10 -11 -3 3 -2 9 2 15 9 16 15 13 8 -4z m-1139 -92 c-4 -32
-13 -67 -20 -77 -10 -15 -13 -91 -12 -340 l2 -321 5 312 c4 171 9 315 14 319
4 4 7 -148 7 -339 0 -190 3 -353 7 -363 5 -13 3 -15 -8 -10 -8 4 -5 0 6 -9 12
-9 34 -15 55 -13 32 3 35 6 43 48 14 80 17 91 27 85 6 -3 10 -20 10 -36 0 -17
4 -28 8 -25 5 3 9 -12 9 -32 1 -70 3 -82 16 -82 16 0 10 71 -7 82 -6 4 -7 10
-3 15 11 11 25 -15 33 -62 8 -50 40 -78 40 -35 0 11 -3 20 -7 20 -4 0 -9 9
-12 20 -5 19 0 20 93 20 54 0 110 4 124 10 25 9 26 13 26 85 0 68 2 75 20 75
14 0 20 -7 21 -22 1 -19 2 -20 6 -5 6 24 53 -74 53 -111 0 -35 -11 -21 -32 41
-10 29 -15 41 -13 27 3 -14 8 -45 12 -70 4 -27 15 -52 27 -63 21 -19 21 -19
-8 -11 -25 6 -28 4 -23 -10 4 -10 3 -15 -4 -11 -5 4 -16 1 -24 -5 -8 -7 -24
-10 -35 -7 -11 3 -20 0 -20 -6 0 -7 15 -12 35 -12 19 0 35 5 35 10 0 6 4 4 9
-4 5 -8 18 -12 30 -8 12 3 19 1 16 -3 -3 -5 -1 -11 5 -15 5 -3 10 -1 10 5 0 7
7 7 23 -1 12 -7 24 -12 26 -11 2 0 14 27 27 58 46 114 89 96 75 -32 -6 -49 -6
-49 -43 -49 -20 0 -34 -3 -31 -7 2 -5 15 -8 29 -8 19 0 24 -5 24 -25 0 -14 -7
-28 -15 -32 -28 -10 -637 74 -643 89 -2 4 -10 8 -18 8 -7 0 -30 17 -51 38
l-38 37 -3 446 c-2 400 -1 448 13 463 9 9 25 16 36 16 17 0 19 -5 13 -57z
m106 27 c0 -10 -71 -33 -78 -25 -3 2 1 11 8 20 14 16 70 21 70 5z m1110 -4 c0
-2 -7 -6 -15 -10 -8 -3 -15 -1 -15 4 0 6 7 10 15 10 8 0 15 -2 15 -4z m-885
-31 c84 -3 132 -10 138 -18 7 -9 10 -9 14 1 6 14 93 17 93 2 0 -5 9 -10 19
-10 28 0 98 -61 110 -95 15 -41 19 -114 10 -147 -4 -16 -4 -42 1 -59 5 -17 11
-67 12 -110 2 -44 7 -79 13 -79 6 0 5 -4 -1 -8 -9 -5 -10 -28 -5 -77 8 -77 -3
-151 -26 -177 -33 -38 -122 -31 -138 10 -4 11 1 13 20 10 49 -10 55 15 55 231
0 152 -3 192 -12 183 -7 -7 -23 -12 -37 -11 -15 0 -20 3 -13 6 6 2 12 9 12 14
0 6 11 27 25 47 47 69 24 174 -45 207 -36 18 -191 39 -373 51 -72 4 -107 10
-104 18 3 10 70 24 92 20 6 -2 68 -5 140 -9z m828 -10 c-3 -9 -8 -14 -10 -11
-3 3 -2 9 2 15 9 16 15 13 8 -4z m837 5 c0 -5 -2 -10 -4 -10 -3 0 -8 5 -11 10
-3 6 -1 10 4 10 6 0 11 -4 11 -10z m77 -56 c-3 -3 -12 -4 -19 -1 -8 3 -5 6 6
6 11 1 17 -2 13 -5z m4750 0 c-3 -3 -12 -4 -19 -1 -8 3 -5 6 6 6 11 1 17 -2
13 -5z m-5755 -27 c-12 -13 -22 -26 -22 -30 0 -12 -36 -43 -46 -40 -15 5 -55
-81 -63 -135 -10 -70 18 -178 53 -199 7 -4 31 -35 53 -68 22 -33 64 -85 92
-115 28 -30 51 -60 51 -66 0 -5 15 -20 33 -33 l32 -22 -27 25 c-16 14 -28 28
-28 32 0 6 -67 90 -104 129 -10 11 -34 45 -54 75 -20 30 -41 60 -49 65 -15 12
-43 99 -43 135 0 37 32 120 51 130 13 8 15 5 11 -18 -3 -15 -10 -30 -16 -34
-14 -9 -15 -146 -1 -156 6 -4 20 -27 33 -52 38 -75 50 -94 70 -111 11 -8 26
-28 35 -45 8 -16 31 -46 51 -68 20 -21 36 -42 36 -46 0 -4 23 -32 50 -61 28
-29 50 -56 50 -59 0 -8 62 -71 90 -92 57 -42 87 -8 46 50 -14 21 -26 43 -26
50 0 7 -4 12 -10 12 -5 0 -10 5 -10 11 0 7 13 9 38 5 122 -19 115 -20 166 15
27 18 62 52 79 76 17 23 35 43 39 43 5 0 16 16 23 35 13 30 13 42 0 97 -19 80
-19 98 0 98 16 0 65 -91 65 -122 0 -9 6 -19 13 -22 10 -5 10 -7 0 -12 -7 -3
-13 -10 -13 -15 0 -6 4 -8 10 -4 17 11 -55 -117 -81 -144 -116 -115 -115 -114
-158 -113 -23 1 -41 -1 -41 -5 0 -24 27 -73 40 -72 10 0 11 2 3 6 -24 9 -13
21 22 25 56 6 47 -18 -28 -75 -51 -39 -106 -49 -148 -26 -26 14 -88 81 -89 96
0 6 -12 21 -26 32 -14 11 -38 37 -54 58 -15 21 -45 56 -66 79 -22 22 -66 71
-99 109 -33 38 -72 82 -87 98 -16 16 -28 31 -28 34 0 3 -13 21 -30 40 -16 18
-30 42 -30 53 0 10 -4 22 -10 25 -5 3 -10 15 -10 26 0 10 -4 19 -10 19 -5 0
-10 21 -10 46 0 25 4 43 8 40 5 -3 13 15 20 39 7 28 22 51 42 66 17 13 51 43
75 67 45 44 75 59 37 19z m999 -23 c55 -60 186 -191 214 -211 16 -13 36 -23
45 -23 13 0 13 -1 0 -10 -11 -7 -11 -10 -2 -10 7 0 10 -4 7 -10 -4 -6 5 -10
20 -10 14 0 24 -4 21 -9 -7 -11 13 -9 32 2 6 5 12 4 12 -1 0 -5 12 -9 28 -8
20 1 27 6 27 21 0 28 20 38 65 30 41 -7 65 -35 30 -35 -24 0 -26 -15 -4 -24
10 -4 14 -16 12 -38 -3 -29 -8 -35 -48 -47 -25 -8 -46 -18 -48 -23 -2 -4 -10
-8 -18 -8 -8 0 -14 -6 -14 -13 0 -6 -20 -28 -45 -47 -24 -19 -45 -39 -45 -45
-1 -5 -23 -28 -50 -50 -28 -22 -50 -44 -50 -50 0 -5 -19 -23 -41 -40 -22 -16
-57 -47 -77 -68 -45 -46 -92 -74 -92 -54 0 7 9 19 20 27 11 8 20 20 20 27 0 7
18 27 40 44 23 19 40 41 40 53 0 17 2 18 10 6 6 -9 10 -10 10 -3 0 15 44 63
58 63 6 0 14 10 17 22 4 11 21 37 39 56 17 19 30 38 28 43 -1 5 3 9 9 9 17 0
38 32 39 58 0 19 -2 21 -19 10 -15 -9 -17 -14 -8 -22 7 -6 10 -10 8 -9 -2 2
-9 -2 -16 -7 -8 -7 -11 -4 -10 11 1 11 8 25 16 30 12 7 12 9 -1 10 -42 4 -67
9 -90 18 -14 5 -19 10 -12 10 20 1 14 21 -7 21 -11 0 -22 4 -25 9 -3 5 -15 11
-27 14 -18 5 -20 2 -15 -21 3 -15 3 -21 0 -14 -8 16 -24 15 -24 -2 0 -14 -34
-30 -59 -26 -7 1 -10 -3 -7 -8 3 -5 0 -15 -7 -21 -11 -9 -14 -2 -15 32 -1 30
1 38 8 27 5 -8 10 -10 10 -4 0 5 -5 15 -12 22 -9 9 -9 12 1 12 11 0 13 16 7
78 -8 99 -26 192 -37 192 -5 0 -9 9 -9 20 0 27 13 25 41 -6z m4712 14 c-13 -6
-23 -17 -23 -25 0 -7 -4 -13 -9 -13 -16 0 0 39 18 43 30 8 36 6 14 -5z m-502
-134 c6 -24 15 -44 20 -44 5 0 9 -9 9 -20 0 -24 -9 -25 -54 -6 -37 15 -47 35
-41 79 9 71 47 66 66 -9z m-901 43 c0 -13 -49 -56 -65 -57 -34 -4 -36 -1 -18
19 28 28 83 54 83 38z m1013 -19 c12 -7 28 -21 35 -30 14 -19 113 -68 138 -68
8 0 17 -7 20 -15 4 -8 10 -15 16 -15 5 0 6 6 2 13 -5 7 0 6 11 -3 11 -9 16
-10 11 -2 -11 18 5 15 18 -4 7 -9 28 -16 49 -17 20 0 37 -5 37 -10 0 -4 4 -6
9 -2 5 3 12 1 16 -5 4 -6 -29 -10 -95 -10 -109 0 -198 19 -228 49 -9 9 -29 23
-43 30 -35 17 -70 66 -63 85 7 19 36 21 67 4z m-903 -13 c0 -8 5 -15 11 -15 5
0 17 -16 25 -35 13 -33 17 -35 59 -35 32 0 45 -4 45 -14 0 -7 15 -21 33 -30
31 -15 29 -16 -90 -16 l-123 0 0 77 c0 71 -1 75 -16 57 -14 -18 -15 -18 -4 4
12 26 60 31 60 7z m-680 -23 c0 -15 -2 -15 -10 -2 -13 20 -13 33 0 25 6 -3 10
-14 10 -23z m-2910 -35 c49 -47 88 -116 97 -172 5 -29 1 -40 -17 -57 -17 -16
-24 -18 -30 -8 -4 7 -14 9 -21 6 -8 -4 -6 -1 4 7 18 15 23 47 7 47 -5 0 -10 9
-10 19 0 11 -4 22 -9 25 -5 3 -25 40 -45 81 -53 110 -48 121 24 52z m4880 23
c0 -5 -4 -10 -10 -10 -5 0 -10 5 -10 10 0 6 5 10 10 10 6 0 10 -4 10 -10z
m-1915 -31 c-6 -18 -4 -19 13 -10 16 8 21 7 26 -4 3 -8 9 -15 13 -14 25 4 43
-3 44 -18 1 -16 2 -16 6 -2 4 15 7 15 32 3 16 -8 62 -17 102 -20 107 -9 106
-22 -1 -23 -98 -1 -197 20 -206 44 -3 8 -19 17 -35 20 -35 8 -48 25 -20 25 12
0 21 5 21 10 0 6 3 10 6 10 3 0 2 -9 -1 -21z m-1362 -6 c-7 -2 -19 -2 -25 0
-7 3 -2 5 12 5 14 0 19 -2 13 -5z m44 -35 c-3 -7 -5 -2 -5 12 0 14 2 19 5 13
2 -7 2 -19 0 -25z m83 -18 c0 -5 -10 -10 -22 -10 -19 0 -20 2 -8 10 19 13 30
13 30 0z m85 -20 c-3 -5 -10 -10 -16 -10 -5 0 -9 5 -9 10 0 6 7 10 16 10 8 0
12 -4 9 -10z m72 -6 c-3 -3 -12 -4 -19 -1 -8 3 -5 6 6 6 11 1 17 -2 13 -5z
m-1480 -136 c-3 -8 -6 -5 -6 6 -1 11 2 17 5 13 3 -3 4 -12 1 -19z m-405 -81
c-19 -12 -52 20 -52 50 0 24 1 24 33 -9 24 -25 29 -35 19 -41z m1420 -95 c10
-8 24 -12 32 -9 7 3 23 -3 34 -13 19 -18 21 -32 21 -162 1 -79 5 -160 10 -180
8 -36 8 -38 -15 -38 l-24 0 0 190 0 190 -60 0 c-57 0 -60 1 -60 24 0 20 4 23
23 19 12 -3 30 -12 39 -21z m258 4 c0 -22 -3 -24 -41 -19 -24 4 -50 1 -65 -7
-24 -13 -24 -14 -24 -172 0 -110 -3 -157 -11 -153 -13 9 -9 344 5 352 15 10
68 21 104 22 27 1 32 -2 32 -23z m410 -60 l0 -84 34 -6 c40 -8 54 -31 26 -46
-35 -19 -59 -12 -66 18 -3 15 -10 40 -15 56 -16 51 -8 146 12 146 5 0 9 -38 9
-84z m250 -112 c0 -181 -1 -194 -16 -179 -15 15 -35 112 -35 175 0 19 17 183
20 198 1 1 8 2 16 2 13 0 15 -28 15 -196z m580 135 c0 -15 6 -34 13 -41 19
-19 83 -196 104 -288 4 -18 -6 -9 -34 30 -32 44 -41 66 -46 114 -3 33 -10 62
-14 65 -5 3 -21 22 -36 42 -27 36 -33 71 -20 118 6 23 7 23 20 6 7 -11 13 -31
13 -46z m520 -4 c7 -36 16 -65 21 -65 5 0 9 -7 9 -16 0 -8 -4 -13 -9 -9 -27
16 -37 -158 -15 -247 6 -25 4 -28 -20 -28 l-26 0 0 215 c0 177 2 215 14 215 9
0 18 -22 26 -65z m266 46 c-3 -4 -1 -13 5 -21 6 -11 9 -8 9 13 0 15 5 27 11
27 7 0 10 -69 8 -215 l-2 -215 -26 0 c-15 0 -32 8 -39 18 -69 97 -82 117 -82
124 0 5 -16 25 -35 45 -19 20 -35 43 -35 51 0 12 4 11 18 -4 9 -11 34 -28 55
-39 39 -20 80 -60 89 -86 3 -8 7 5 9 29 3 23 1 42 -3 42 -5 0 -8 56 -8 125 0
106 2 124 15 119 8 -4 13 -9 11 -13z m574 -1 c0 -11 5 -20 10 -20 6 0 10 10
10 23 0 45 17 6 71 -170 12 -40 25 -73 30 -73 5 0 17 -30 29 -66 22 -71 25
-98 10 -74 -5 8 -10 10 -10 4 0 -5 5 -15 12 -22 9 -9 4 -12 -24 -12 -34 0 -37
3 -50 43 l-13 42 -87 3 -88 3 -12 -46 c-11 -42 -15 -45 -44 -45 -31 0 -32 2
-24 28 4 15 15 45 23 67 9 22 26 73 37 114 12 41 28 80 36 88 7 8 19 33 25 56
6 23 15 50 20 60 13 23 39 22 39 -3z m574 -88 c15 -85 15 -95 0 -124 -16 -32
-16 -142 1 -180 5 -14 2 -18 -14 -18 -21 0 -21 3 -21 217 0 132 4 213 9 208 5
-6 17 -52 25 -103z m345 -99 c0 -176 -3 -204 -13 -183 -23 44 -46 248 -35 305
14 73 19 85 35 85 12 0 14 -31 13 -207z m631 187 c33 -17 42 -28 55 -72 15
-53 20 -170 9 -227 -4 -18 -22 -48 -40 -66 -32 -33 -36 -35 -93 -30 -51 4 -64
9 -95 40 -48 46 -56 70 -56 170 0 91 9 121 54 172 26 29 36 33 78 33 29 0 65
-8 88 -20z m529 -7 c15 -16 44 -56 64 -90 21 -34 41 -63 45 -65 4 -2 25 -30
45 -63 l37 -59 0 152 0 152 35 0 35 0 0 -215 0 -215 -30 0 c-25 0 -30 5 -39
38 -6 20 -11 42 -11 47 -1 17 -54 72 -76 79 -12 4 -25 14 -28 24 -9 24 -55 85
-72 95 -16 9 -16 13 -14 -165 1 -111 0 -118 -18 -118 -37 0 -51 172 -23 268 6
21 6 43 1 58 -5 13 -6 24 -3 24 4 0 2 5 -5 12 -7 7 -12 25 -12 40 0 37 32 38
69 1z m-3509 -40 c0 -53 -3 -59 -29 -74 -25 -15 -33 -30 -47 -94 -1 -5 -2 -31
-3 -56 -1 -30 -8 -52 -21 -67 -11 -12 -20 -33 -20 -47 0 -18 -5 -25 -20 -25
-11 0 -20 6 -20 14 0 12 25 79 55 151 20 45 55 143 72 203 9 28 20 52 24 52 5
0 9 -26 9 -57z m658 4 c12 -24 38 -61 57 -81 19 -21 35 -41 35 -46 0 -5 3 -15
6 -24 3 -9 2 -16 -4 -16 -8 0 -29 17 -114 97 -13 12 -18 32 -18 70 0 62 7 62
38 0z m1402 -27 c0 -11 4 -20 8 -20 13 0 63 -103 54 -112 -14 -14 -70 15 -83
41 -6 14 -14 60 -16 101 l-5 75 21 -33 c12 -18 21 -41 21 -52z m220 56 c0 -3
-4 -8 -10 -11 -5 -3 -10 -1 -10 4 0 6 5 11 10 11 6 0 10 -2 10 -4z m-3093 -53
c-3 -10 -5 -2 -5 17 0 19 2 27 5 18 2 -10 2 -26 0 -35z m3071 -13 c-1 -16 -6
-30 -11 -30 -4 0 -5 -5 -2 -11 13 -20 -4 -57 -29 -61 -19 -4 -23 -1 -19 11 7
20 57 121 61 121 1 0 1 -13 0 -30z m-3056 -102 c1 -35 1 -81 -1 -103 -2 -22
-1 -59 3 -82 6 -36 5 -43 -8 -43 -14 0 -16 21 -16 163 1 110 4 157 10 145 6
-9 11 -45 12 -80z m206 -8 c1 -28 -2 -30 -36 -29 -34 0 -35 1 -14 11 12 6 22
19 22 30 0 32 27 20 28 -12z m569 -2 c-3 -18 -8 -41 -12 -50 -6 -15 -2 -18 25
-18 44 0 38 -34 -7 -38 -28 -3 -33 1 -39 23 -7 30 14 115 29 115 5 0 7 -14 4
-32z m93 -3 c0 -5 -5 -3 -10 5 -5 8 -10 20 -10 25 0 6 5 3 10 -5 5 -8 10 -19
10 -25z m560 -85 c0 -72 -3 -88 -14 -84 -18 7 -26 36 -26 96 0 56 7 78 26 78
11 0 14 -20 14 -90z m1511 3 c23 -55 23 -53 0 -53 -17 0 -23 9 -58 97 -3 8 3
10 17 6 14 -4 29 -22 41 -50z m72 51 c5 -5 -6 -38 -18 -52 -8 -9 -43 33 -38
44 5 14 44 19 56 8z m-2769 -156 c4 -20 1 -28 -9 -28 -12 0 -15 16 -14 88 l1
87 9 -60 c4 -33 11 -72 13 -87z m2586 77 c0 -36 -2 -65 -5 -65 -13 0 -25 58
-20 92 10 60 25 44 25 -27z m-2790 -7 c-1 -52 -3 -59 -12 -44 -16 29 -11 106
8 106 2 0 4 -28 4 -62z m840 42 c0 -9 14 -29 45 -64 10 -11 35 -62 35 -71 0
-3 -6 -5 -13 -5 -7 0 -18 20 -25 45 -12 45 -12 45 -56 45 l-45 0 17 30 c16 29
42 41 42 20z m2207 -12 c-3 -8 -6 -5 -6 6 -1 11 2 17 5 13 3 -3 4 -12 1 -19z
m23 -115 c0 -7 -7 -13 -15 -13 -12 0 -15 13 -14 58 l0 57 15 -45 c7 -25 14
-51 14 -57z m-5007 -50 c-7 -2 -19 -2 -25 0 -7 3 -2 5 12 5 14 0 19 -2 13 -5z"/>
<path d="M7933 9334 c-7 -19 11 -39 26 -30 16 10 13 33 -4 40 -9 3 -18 -1 -22
-10z"/>
<path d="M9143 8363 c-18 -6 -16 -23 1 -23 9 0 12 -7 9 -20 -3 -11 -1 -20 5
-20 5 0 8 14 6 32 -5 36 -5 37 -21 31z"/>
<path d="M4720 8051 c0 -25 6 -27 13 -6 4 8 2 17 -3 20 -6 4 -10 -3 -10 -14z"/>
<path d="M9030 7940 c0 -5 5 -10 10 -10 6 0 10 5 10 10 0 6 -4 10 -10 10 -5 0
-10 -4 -10 -10z"/>
<path d="M5540 7590 c0 -5 5 -10 11 -10 5 0 7 5 4 10 -3 6 -8 10 -11 10 -2 0
-4 -4 -4 -10z"/>
<path d="M5700 7500 c0 -5 5 -10 10 -10 6 0 10 5 10 10 0 6 -4 10 -10 10 -5 0
-10 -4 -10 -10z"/>
<path d="M3397 7050 c2 -190 6 -352 8 -360 6 -27 2 643 -5 674 -3 17 -5 -124
-3 -314z"/>
<path d="M4423 6393 c9 -2 23 -2 30 0 6 3 -1 5 -18 5 -16 0 -22 -2 -12 -5z"/>
<path d="M3840 6650 c0 -5 10 -10 23 -10 18 0 19 2 7 10 -19 13 -30 13 -30 0z"/>
<path d="M4821 6735 c11 -30 57 -85 74 -89 17 -4 17 -2 -4 15 -14 11 -36 35
-49 52 -13 18 -23 28 -21 22z"/>
<path d="M9182 6750 c0 -19 2 -27 5 -17 2 9 2 25 0 35 -3 9 -5 1 -5 -18z"/>
<path d="M9167 6661 c-4 -17 -3 -21 5 -13 5 5 8 16 6 23 -3 8 -7 3 -11 -10z"/>
<path d="M9180 6512 c6 -13 14 -21 18 -18 3 4 -2 14 -12 24 -18 16 -18 16 -6
-6z"/>
<path d="M9742 6800 c0 -14 2 -19 5 -12 2 6 2 18 0 25 -3 6 -5 1 -5 -13z"/>
<path d="M9717 6708 c-9 -35 -19 -73 -23 -85 -5 -19 -3 -23 16 -23 17 0 21 -4
17 -20 -3 -11 -1 -18 4 -14 5 3 9 12 9 20 0 9 11 14 35 14 19 0 35 2 35 3 0 2
-9 30 -20 62 -24 68 -25 87 -5 61 8 -11 15 -16 15 -10 -1 14 -30 50 -30 36 0
-7 -4 -12 -10 -12 -5 0 -10 7 -10 15 0 36 -18 10 -33 -47z"/>
<path d="M9690 6690 c-6 -11 -8 -20 -6 -20 3 0 10 9 16 20 6 11 8 20 6 20 -3
0 -10 -9 -16 -20z"/>
<path d="M9810 6671 c0 -6 4 -13 10 -16 6 -3 7 1 4 9 -7 18 -14 21 -14 7z"/>
<path d="M9850 6536 c0 -3 9 -10 20 -16 11 -6 20 -8 20 -6 0 3 -9 10 -20 16
-11 6 -20 8 -20 6z"/>
<path d="M11193 6828 c-49 -13 -63 -49 -63 -162 0 -135 8 -148 95 -158 58 -7
85 41 85 149 0 62 -5 88 -22 123 -26 49 -49 61 -95 48z"/>
</g>
</svg>
